<svg width="196" height="59" viewBox="0 0 196 59" fill="none" xmlns="http://www.w3.org/2000/svg">
<g clip-path="url(#clip0_154_498)">
<path d="M180.392 0.000188741H15.617C15.0164 0.000188741 14.423 0.000188741 13.8239 0.00309244C13.3225 0.00599615 12.825 0.0144314 12.3188 0.021531C11.2189 0.0330032 10.1217 0.118771 9.03656 0.278088C7.95295 0.440873 6.90329 0.74777 5.92307 1.1884C4.94406 1.63276 4.0495 2.21015 3.27186 2.89964C2.49013 3.58719 1.8385 4.3819 1.34203 5.25322C0.844184 6.12281 0.498976 7.05465 0.318329 8.01656C0.135965 8.97726 0.0378333 9.94903 0.0248145 10.9232C0.00961458 11.3683 0.00800942 11.8149 0 12.2601V45.8186C0.00800942 46.2694 0.00961458 46.7061 0.0248145 47.1571C0.0378373 48.1311 0.135969 49.1029 0.318329 50.0635C0.498478 51.026 0.843705 51.9584 1.34203 52.8283C1.83828 53.6968 2.49 54.4883 3.27186 55.172C4.04655 55.8646 4.94169 56.4424 5.92307 56.8833C6.90328 57.3251 7.95283 57.6338 9.03656 57.7991C10.1219 57.9572 11.219 58.043 12.3188 58.0558C12.825 58.0657 13.3225 58.0714 13.8239 58.0714C14.423 58.0743 15.0164 58.0743 15.617 58.0743H180.392C180.98 58.0743 181.579 58.0743 182.167 58.0714C182.666 58.0714 183.178 58.0657 183.677 58.0558C184.775 58.0437 185.87 57.9579 186.953 57.7991C188.04 57.6327 189.094 57.324 190.079 56.8833C191.059 56.4421 191.953 55.8643 192.727 55.172C193.507 54.4856 194.16 53.6947 194.663 52.8283C195.157 51.9577 195.499 51.0254 195.677 50.0635C195.859 49.1027 195.961 48.1312 195.981 47.1571C195.987 46.7061 195.987 46.2694 195.987 45.8186C196 45.2911 196 44.7666 196 44.2306V13.8452C196 13.3136 196 12.7861 195.987 12.2601C195.987 11.8149 195.987 11.3683 195.981 10.9231C195.961 9.94889 195.859 8.97733 195.677 8.0165C195.499 7.05515 195.157 6.12338 194.663 5.25316C193.652 3.5067 192.049 2.08508 190.079 1.18827C189.094 0.748716 188.04 0.441901 186.953 0.277957C185.87 0.117938 184.775 0.0321408 183.677 0.0213277C183.178 0.0142427 182.666 0.00573481 182.167 0.0029037C181.579 0 180.98 0 180.392 0V0.000188741Z" fill="#A6A6A6"/>
<path d="M13.691 56.8081C13.1911 56.8081 12.7033 56.8025 12.2073 56.7926C11.1798 56.7807 10.1548 56.7016 9.14052 56.5557C8.19478 56.4116 7.27861 56.1434 6.42223 55.7601C5.57371 55.38 4.79978 54.8815 4.13011 54.2838C3.45074 53.6932 2.88514 53.0082 2.45571 52.2559C2.02155 51.4987 1.72109 50.6871 1.56478 49.8494C1.39599 48.9492 1.30467 48.039 1.2916 47.1266C1.2812 46.8203 1.26758 45.8006 1.26758 45.8006V12.255C1.26758 12.255 1.28208 11.251 1.29168 10.956C1.30419 10.0451 1.39499 9.13627 1.56327 8.23749C1.71986 7.39745 2.02056 6.58352 2.45495 5.82387C2.8828 5.07211 3.44527 4.38657 4.12054 3.79383C4.79506 3.19545 5.57146 2.69443 6.42143 2.30904C7.27584 1.92695 8.19028 1.66069 9.13411 1.51916C10.1517 1.37186 11.1803 1.29222 12.2113 1.28091L13.6918 1.26318H182.309L183.807 1.28163C184.829 1.29237 185.848 1.3713 186.856 1.51773C187.81 1.66104 188.734 1.92916 189.598 2.3133C191.301 3.08997 192.686 4.31876 193.56 5.82741C193.988 6.58182 194.284 7.38911 194.438 8.2219C194.609 9.12804 194.704 10.044 194.724 10.9624C194.728 11.3737 194.728 11.8154 194.728 12.255C194.741 12.7996 194.741 13.3179 194.741 13.8405V44.2322C194.741 44.7597 194.741 45.2745 194.728 45.7935C194.728 46.2658 194.728 46.6984 194.722 47.1436C194.703 48.0456 194.609 48.9452 194.442 49.8352C194.288 50.679 193.99 51.4969 193.556 52.2603C193.123 53.0044 192.561 53.6835 191.889 54.2725C191.219 54.8734 190.444 55.3748 189.593 55.7574C188.731 56.1436 187.809 56.4128 186.856 56.5557C185.842 56.7024 184.817 56.7815 183.79 56.7926C183.309 56.8025 182.806 56.8081 182.317 56.8081L180.539 56.811L13.691 56.8081Z" fill="black"/>
<path d="M47.6168 29.4735C47.6324 28.2617 47.9543 27.0735 48.5525 26.0195C49.1507 24.9655 50.0058 24.08 51.0382 23.4453C50.3823 22.5086 49.5171 21.7378 48.5112 21.194C47.5053 20.6502 46.3865 20.3484 45.2436 20.3127C42.8056 20.0568 40.4421 21.7715 39.1997 21.7715C37.9333 21.7715 36.0205 20.3381 33.9607 20.3804C32.6284 20.4235 31.3299 20.8109 30.1918 21.505C29.0538 22.1991 28.1149 23.1761 27.4667 24.3409C24.6588 29.2023 26.7532 36.347 29.4429 40.2765C30.7887 42.2008 32.3614 44.3502 34.4193 44.2739C36.4331 44.1904 37.1853 42.9898 39.6161 42.9898C42.0244 42.9898 42.73 44.2739 44.8297 44.2255C46.9906 44.1904 48.3521 42.2927 49.6506 40.3503C50.6175 38.9792 51.3615 37.4639 51.8551 35.8604C50.5997 35.3294 49.5283 34.4406 48.7746 33.3049C48.021 32.1691 47.6183 30.8366 47.6168 29.4735Z" fill="white"/>
<path d="M43.651 17.7285C44.8292 16.3141 45.4097 14.4961 45.2691 12.6606C43.4691 12.8497 41.8063 13.71 40.6122 15.0702C40.0284 15.7346 39.5812 16.5076 39.2963 17.345C39.0114 18.1824 38.8943 19.0677 38.9517 19.9504C39.8521 19.9597 40.7428 19.7645 41.5568 19.3796C42.3708 18.9948 43.0868 18.4302 43.651 17.7285Z" fill="white"/>
<path d="M73.073 39.4026H66.2008L64.5504 44.2757H61.6396L68.1489 26.2466H71.1731L77.6823 44.2757H74.7219L73.073 39.4026ZM66.9125 37.1539H72.3599L69.6745 29.2453H69.5994L66.9125 37.1539Z" fill="white"/>
<path d="M91.7398 37.7042C91.7398 41.789 89.5535 44.4133 86.2543 44.4133C85.4185 44.4571 84.5873 44.2645 83.8559 43.8578C83.1244 43.4511 82.5223 42.8466 82.1185 42.1136H82.056V48.6243H79.3579V31.1312H81.9696V33.3175H82.0192C82.4416 32.5879 83.0539 31.9866 83.7909 31.5774C84.5279 31.1682 85.3621 30.9665 86.2046 30.9936C89.5407 30.9936 91.7398 33.6308 91.7398 37.7042ZM88.9665 37.7042C88.9665 35.043 87.5912 33.2934 85.4929 33.2934C83.4314 33.2934 82.0447 35.0798 82.0447 37.7042C82.0447 40.3527 83.4314 42.1264 85.4929 42.1264C87.5913 42.1264 88.9665 40.3896 88.9665 37.7042Z" fill="white"/>
<path d="M106.208 37.7042C106.208 41.789 104.021 44.4133 100.722 44.4133C99.8863 44.4571 99.0551 44.2645 98.3236 43.8578C97.5922 43.4511 96.9901 42.8466 96.5862 42.1136H96.5238V48.6243H93.8257V31.1312H96.4373V33.3174H96.4869C96.9094 32.5879 97.5216 31.9866 98.2586 31.5774C98.9957 31.1682 99.8298 30.9665 100.672 30.9936C104.009 30.9936 106.208 33.6308 106.208 37.7042ZM103.434 37.7042C103.434 35.043 102.059 33.2933 99.9606 33.2933C97.8991 33.2933 96.5125 35.0798 96.5125 37.7042C96.5125 40.3527 97.8991 42.1264 99.9606 42.1264C102.059 42.1264 103.434 40.3896 103.434 37.7042H103.434Z" fill="white"/>
<path d="M115.769 39.2526C115.969 41.0405 117.706 42.2144 120.079 42.2144C122.354 42.2144 123.99 41.0405 123.99 39.4284C123.99 38.029 123.003 37.1911 120.666 36.6168L118.33 36.054C115.019 35.2543 113.482 33.706 113.482 31.1937C113.482 28.0829 116.193 25.9463 120.043 25.9463C123.852 25.9463 126.464 28.0829 126.552 31.1937H123.828C123.665 29.3944 122.178 28.3084 120.004 28.3084C117.831 28.3084 116.343 29.4072 116.343 31.0065C116.343 32.2811 117.293 33.0312 119.617 33.6053L121.604 34.0931C125.303 34.9679 126.84 36.4538 126.84 39.0909C126.84 42.4639 124.153 44.5765 119.88 44.5765C115.881 44.5765 113.182 42.5135 113.007 39.2525L115.769 39.2526Z" fill="white"/>
<path d="M132.663 28.0205V31.1312H135.162V33.2679H132.663V40.5144C132.663 41.6401 133.163 42.1647 134.262 42.1647C134.559 42.1595 134.855 42.1387 135.149 42.1023V44.2262C134.655 44.3185 134.153 44.3603 133.651 44.351C130.99 44.351 129.952 43.3514 129.952 40.8021V33.2679H128.041V31.1312H129.952V28.0205H132.663Z" fill="white"/>
<path d="M136.61 37.7044C136.61 33.5686 139.046 30.9697 142.844 30.9697C146.655 30.9697 149.08 33.5685 149.08 37.7044C149.08 41.8515 146.668 44.439 142.844 44.439C139.022 44.439 136.61 41.8515 136.61 37.7044ZM146.33 37.7044C146.33 34.8673 145.03 33.1929 142.844 33.1929C140.658 33.1929 139.359 34.8801 139.359 37.7044C139.359 40.5528 140.658 42.2145 142.844 42.2145C145.03 42.2145 146.33 40.5528 146.33 37.7044H146.33Z" fill="white"/>
<path d="M151.304 31.1315H153.878V33.3688H153.94C154.114 32.6701 154.523 32.0526 155.099 31.6201C155.675 31.1876 156.382 30.9665 157.102 30.994C157.413 30.9929 157.723 31.0267 158.026 31.0947V33.6184C157.634 33.4984 157.224 33.4434 156.814 33.4553C156.422 33.4394 156.031 33.5085 155.668 33.6579C155.306 33.8073 154.98 34.0334 154.712 34.3207C154.445 34.608 154.244 34.9497 154.121 35.3224C153.998 35.695 153.958 36.0898 154.002 36.4795V44.2762H151.304L151.304 31.1315Z" fill="white"/>
<path d="M170.466 40.4153C170.103 42.8015 167.779 44.439 164.806 44.439C160.982 44.439 158.609 41.877 158.609 37.7668C158.609 33.6437 160.995 30.9697 164.693 30.9697C168.329 30.9697 170.616 33.4679 170.616 37.4534V38.3779H161.333V38.5409C161.29 39.0247 161.35 39.512 161.51 39.9705C161.67 40.4291 161.926 40.8484 162.26 41.2005C162.595 41.5527 163 41.8296 163.45 42.013C163.9 42.1964 164.383 42.282 164.869 42.2641C165.506 42.3238 166.146 42.1762 166.693 41.8431C167.24 41.5099 167.665 41.0092 167.904 40.4153L170.466 40.4153ZM161.345 36.4921H167.917C167.941 36.0572 167.875 35.6219 167.723 35.2136C167.571 34.8054 167.336 34.4329 167.034 34.1196C166.731 33.8064 166.367 33.5591 165.964 33.3932C165.561 33.2274 165.128 33.1467 164.693 33.156C164.253 33.1534 163.818 33.2378 163.411 33.4044C163.005 33.571 162.635 33.8164 162.324 34.1266C162.013 34.4368 161.766 34.8055 161.598 35.2115C161.43 35.6175 161.344 36.0528 161.345 36.4922V36.4921Z" fill="white"/>
<path d="M66.5744 12.6763C67.1401 12.6357 67.7077 12.7212 68.2364 12.9265C68.765 13.1319 69.2415 13.452 69.6314 13.8638C70.0214 14.2755 70.3151 14.7687 70.4913 15.3078C70.6676 15.8468 70.722 16.4182 70.6507 16.9808C70.6507 19.7484 69.1549 21.3393 66.5744 21.3393H63.4453V12.6763H66.5744ZM64.7908 20.1142H66.4241C66.8284 20.1383 67.2329 20.0721 67.6082 19.9202C67.9836 19.7683 68.3203 19.5346 68.594 19.2362C68.8677 18.9377 69.0713 18.582 69.1902 18.1949C69.309 17.8078 69.3401 17.3991 69.2811 16.9985C69.3358 16.5995 69.3016 16.1933 69.1809 15.809C69.0603 15.4248 68.8561 15.072 68.5831 14.7759C68.31 14.4798 67.9749 14.2478 67.6016 14.0965C67.2284 13.9451 66.8263 13.8782 66.4241 13.9006H64.7908V20.1142Z" fill="white"/>
<path d="M72.1708 18.0674C72.1297 17.6377 72.1789 17.2043 72.3151 16.7947C72.4514 16.3852 72.6717 16.0087 72.962 15.6893C73.2523 15.3699 73.6061 15.1147 74.0008 14.9401C74.3955 14.7655 74.8223 14.6753 75.2539 14.6753C75.6855 14.6753 76.1123 14.7655 76.507 14.9401C76.9017 15.1147 77.2555 15.3699 77.5458 15.6893C77.8361 16.0087 78.0564 16.3852 78.1927 16.7947C78.3289 17.2043 78.3781 17.6377 78.337 18.0674C78.3788 18.4974 78.3303 18.9315 78.1944 19.3417C78.0585 19.7519 77.8383 20.1291 77.5479 20.4491C77.2576 20.7691 76.9035 21.0248 76.5084 21.1998C76.1133 21.3748 75.686 21.4652 75.2539 21.4652C74.8218 21.4652 74.3945 21.3748 73.9994 21.1998C73.6043 21.0248 73.2502 20.7691 72.9598 20.4491C72.6695 20.1291 72.4493 19.7519 72.3134 19.3417C72.1775 18.9315 72.129 18.4974 72.1708 18.0674ZM77.0099 18.0674C77.0099 16.6503 76.3732 15.8215 75.256 15.8215C74.1345 15.8215 73.5036 16.6503 73.5036 18.0674C73.5036 19.4958 74.1346 20.3182 75.256 20.3182C76.3733 20.3182 77.0099 19.4902 77.0099 18.0674H77.0099Z" fill="white"/>
<path d="M86.533 21.3393H85.1946L83.8434 16.5244H83.7413L82.3958 21.3393H81.0701L79.2681 14.8018H80.5767L81.7478 19.7903H81.8443L83.1884 14.8018H84.4261L85.7702 19.7903H85.8723L87.0377 14.8018H88.328L86.533 21.3393Z" fill="white"/>
<path d="M89.8438 14.8016H91.0858V15.8401H91.1822C91.3457 15.4671 91.6216 15.1544 91.9713 14.9456C92.321 14.7369 92.7272 14.6424 93.1331 14.6754C93.4512 14.6515 93.7706 14.6994 94.0677 14.8157C94.3647 14.932 94.6318 15.1136 94.8491 15.3472C95.0664 15.5807 95.2284 15.8601 95.3231 16.1647C95.4177 16.4694 95.4426 16.7914 95.3959 17.1069V21.3391H94.1057V17.4309C94.1057 16.3803 93.6492 15.8579 92.695 15.8579C92.479 15.8478 92.2634 15.8846 92.063 15.9656C91.8625 16.0467 91.682 16.1701 91.5337 16.3275C91.3855 16.4848 91.273 16.6724 91.204 16.8773C91.135 17.0822 91.1111 17.2996 91.134 17.5146V21.3392H89.8438L89.8438 14.8016Z" fill="white"/>
<path d="M97.4517 12.2495H98.7419V21.3392H97.4517V12.2495Z" fill="white"/>
<path d="M100.536 18.0675C100.494 17.6378 100.544 17.2043 100.68 16.7948C100.816 16.3853 101.037 16.0087 101.327 15.6893C101.617 15.3699 101.971 15.1147 102.366 14.9401C102.76 14.7655 103.187 14.6753 103.619 14.6753C104.051 14.6753 104.477 14.7655 104.872 14.9401C105.267 15.1147 105.621 15.3699 105.911 15.6893C106.201 16.0087 106.422 16.3853 106.558 16.7948C106.694 17.2043 106.743 17.6378 106.702 18.0675C106.744 18.4976 106.696 18.9317 106.56 19.3418C106.424 19.752 106.204 20.1292 105.913 20.4492C105.623 20.7692 105.269 21.0249 104.874 21.1999C104.478 21.3749 104.051 21.4653 103.619 21.4653C103.187 21.4653 102.76 21.3749 102.364 21.1999C101.969 21.0249 101.615 20.7692 101.325 20.4492C101.034 20.1292 100.814 19.752 100.678 19.3418C100.542 18.9317 100.494 18.4976 100.536 18.0675ZM105.375 18.0675C105.375 16.6504 104.738 15.8217 103.621 15.8217C102.499 15.8217 101.868 16.6504 101.868 18.0675C101.868 19.496 102.499 20.3183 103.621 20.3183C104.738 20.3183 105.375 19.4903 105.375 18.0675H105.375Z" fill="white"/>
<path d="M108.061 19.4902C108.061 18.3134 108.937 17.635 110.492 17.5386L112.263 17.4365V16.8722C112.263 16.1817 111.806 15.7918 110.925 15.7918C110.204 15.7918 109.705 16.0563 109.562 16.5185H108.313C108.445 15.3955 109.501 14.6753 110.984 14.6753C112.623 14.6753 113.548 15.4912 113.548 16.8722V21.3391H112.306V20.4203H112.203C111.996 20.7499 111.705 21.0185 111.36 21.1989C111.015 21.3792 110.629 21.4648 110.24 21.4468C109.965 21.4753 109.688 21.446 109.425 21.3608C109.163 21.2756 108.921 21.1363 108.716 20.952C108.511 20.7676 108.346 20.5423 108.233 20.2906C108.121 20.0388 108.062 19.7661 108.061 19.4902ZM112.263 18.9316V18.385L110.667 18.4871C109.766 18.5474 109.358 18.8536 109.358 19.4299C109.358 20.0183 109.868 20.3607 110.57 20.3607C110.776 20.3816 110.984 20.3608 111.181 20.2997C111.378 20.2386 111.562 20.1384 111.72 20.005C111.877 19.8717 112.007 19.7079 112.1 19.5235C112.194 19.3391 112.249 19.1378 112.263 18.9316Z" fill="white"/>
<path d="M115.244 18.0676C115.244 16.0018 116.306 14.6932 117.957 14.6932C118.366 14.6743 118.771 14.7722 119.126 14.9753C119.481 15.1784 119.771 15.4784 119.962 15.8401H120.059V12.2495H121.349V21.3392H120.112V20.3063H120.01C119.805 20.6656 119.505 20.9618 119.143 21.1629C118.781 21.3639 118.371 21.4622 117.957 21.4469C116.294 21.447 115.244 20.1383 115.244 18.0676ZM116.576 18.0676C116.576 19.4542 117.23 20.2886 118.323 20.2886C119.411 20.2886 120.083 19.4422 120.083 18.0733C120.083 16.7107 119.404 15.8522 118.323 15.8522C117.237 15.8522 116.576 16.6923 116.576 18.0676H116.576Z" fill="white"/>
<path d="M126.687 18.0674C126.646 17.6377 126.695 17.2043 126.831 16.7947C126.967 16.3852 127.188 16.0087 127.478 15.6893C127.768 15.3699 128.122 15.1147 128.517 14.9401C128.912 14.7655 129.338 14.6753 129.77 14.6753C130.202 14.6753 130.628 14.7655 131.023 14.9401C131.418 15.1147 131.772 15.3699 132.062 15.6893C132.352 16.0087 132.573 16.3852 132.709 16.7947C132.845 17.2043 132.894 17.6377 132.853 18.0674C132.895 18.4974 132.846 18.9315 132.71 19.3417C132.575 19.7519 132.354 20.1291 132.064 20.4491C131.774 20.7691 131.42 21.0248 131.025 21.1998C130.629 21.3748 130.202 21.4652 129.77 21.4652C129.338 21.4652 128.911 21.3748 128.515 21.1998C128.12 21.0248 127.766 20.7691 127.476 20.4491C127.186 20.1291 126.965 19.7519 126.83 19.3417C126.694 18.9315 126.645 18.4974 126.687 18.0674ZM131.526 18.0674C131.526 16.6503 130.889 15.8215 129.772 15.8215C128.651 15.8215 128.02 16.6503 128.02 18.0674C128.02 19.4958 128.651 20.3182 129.772 20.3182C130.889 20.3182 131.526 19.4902 131.526 18.0674Z" fill="white"/>
<path d="M134.584 14.8016H135.826V15.8401H135.922C136.086 15.4671 136.362 15.1544 136.712 14.9456C137.061 14.7369 137.467 14.6424 137.873 14.6754C138.191 14.6515 138.511 14.6994 138.808 14.8157C139.105 14.932 139.372 15.1136 139.589 15.3472C139.807 15.5807 139.969 15.8601 140.063 16.1647C140.158 16.4694 140.183 16.7914 140.136 17.1069V21.3391H138.846V17.4309C138.846 16.3803 138.389 15.8579 137.435 15.8579C137.219 15.8478 137.004 15.8846 136.803 15.9656C136.603 16.0467 136.422 16.1701 136.274 16.3275C136.126 16.4848 136.013 16.6724 135.944 16.8773C135.875 17.0822 135.851 17.2996 135.874 17.5146V21.3392H134.584V14.8016Z" fill="white"/>
<path d="M147.427 13.1738V14.8313H148.843V15.918H147.427V19.2797C147.427 19.9645 147.709 20.2644 148.351 20.2644C148.516 20.2638 148.68 20.2539 148.843 20.2346V21.3093C148.611 21.3507 148.377 21.3728 148.141 21.3752C146.706 21.3752 146.135 20.8705 146.135 19.61V15.918H145.097V14.8312H146.135V13.1738H147.427Z" fill="white"/>
<path d="M150.605 12.2495H151.884V15.8522H151.986C152.158 15.4757 152.441 15.1613 152.798 14.9517C153.155 14.7421 153.567 14.6476 153.98 14.6811C154.296 14.6639 154.613 14.7167 154.906 14.8358C155.2 14.9549 155.464 15.1374 155.679 15.3702C155.894 15.603 156.055 15.8803 156.15 16.1825C156.246 16.4847 156.274 16.8042 156.231 17.1183V21.3392H154.94V17.4366C154.94 16.3924 154.453 15.8635 153.542 15.8635C153.32 15.8453 153.097 15.8758 152.888 15.9529C152.68 16.0299 152.49 16.1516 152.333 16.3095C152.177 16.4673 152.056 16.6576 151.981 16.8668C151.905 17.0761 151.876 17.2993 151.896 17.521V21.3392H150.606L150.605 12.2495Z" fill="white"/>
<path d="M163.754 19.574C163.579 20.1715 163.199 20.6883 162.681 21.0341C162.163 21.3798 161.54 21.5325 160.921 21.4654C160.491 21.4767 160.063 21.3942 159.667 21.2236C159.271 21.053 158.918 20.7983 158.63 20.4772C158.343 20.1562 158.129 19.7764 158.003 19.3643C157.877 18.9523 157.843 18.5178 157.901 18.0909C157.844 17.6628 157.879 17.2274 158.005 16.8141C158.13 16.4008 158.343 16.0193 158.629 15.6954C158.915 15.3715 159.267 15.1128 159.662 14.9369C160.056 14.7609 160.484 14.6717 160.916 14.6754C162.735 14.6754 163.832 15.9182 163.832 17.9711V18.4213H159.216V18.4936C159.196 18.7335 159.226 18.975 159.304 19.2026C159.383 19.4302 159.508 19.6388 159.672 19.8151C159.836 19.9915 160.035 20.1316 160.256 20.2266C160.477 20.3215 160.716 20.3692 160.957 20.3665C161.265 20.4036 161.578 20.348 161.855 20.2068C162.132 20.0657 162.361 19.8454 162.512 19.5739L163.754 19.574ZM159.216 17.4671H162.518C162.534 17.2477 162.504 17.0273 162.43 16.8201C162.356 16.6129 162.24 16.4234 162.088 16.2639C161.937 16.1044 161.753 15.9784 161.55 15.894C161.347 15.8095 161.129 15.7685 160.909 15.7735C160.685 15.7707 160.464 15.8126 160.257 15.8967C160.051 15.9809 159.863 16.1055 159.705 16.2633C159.547 16.4212 159.423 16.609 159.339 16.8157C159.255 17.0225 159.213 17.2439 159.216 17.4671H159.216Z" fill="white"/>
</g>
<defs>
<clipPath id="clip0_154_498">
<rect width="196" height="58.0741" fill="white"/>
</clipPath>
</defs>
</svg>
