<svg width="196" height="59" viewBox="0 0 196 59" fill="none" xmlns="http://www.w3.org/2000/svg">
<g clip-path="url(#clip0_154_497)">
<path d="M188.741 0H7.25926C3.25008 0 0 3.25008 0 7.25926V50.8148C0 54.824 3.25008 58.0741 7.25926 58.0741H188.741C192.75 58.0741 196 54.824 196 50.8148V7.25926C196 3.25008 192.75 0 188.741 0Z" fill="black"/>
<path d="M188.741 1.16119C190.357 1.16306 191.907 1.80615 193.051 2.94936C194.194 4.09258 194.837 5.64256 194.838 7.25926V50.8148C194.837 52.4315 194.194 53.9815 193.05 55.1247C191.907 56.2679 190.357 56.911 188.741 56.9129H7.25926C5.64255 56.911 4.09259 56.2679 2.94943 55.1247C1.80628 53.9815 1.16327 52.4315 1.16148 50.8148V7.25926C1.16324 5.64254 1.80624 4.09254 2.94941 2.94932C4.09257 1.8061 5.64254 1.16303 7.25926 1.16119H188.741ZM188.741 0H7.25926C5.33572 0.00563042 3.49256 0.772251 2.13241 2.13241C0.772251 3.49256 0.00563042 5.33572 0 7.25926L0 50.8148C0.00563042 52.7384 0.772251 54.5815 2.13241 55.9417C3.49256 57.3018 5.33572 58.0684 7.25926 58.0741H188.741C190.664 58.0684 192.507 57.3018 193.868 55.9417C195.228 54.5815 195.994 52.7384 196 50.8148V7.25926C195.994 5.33572 195.228 3.49256 193.868 2.13241C192.507 0.772251 190.664 0.00563042 188.741 0Z" fill="#A6A6A6"/>
<path d="M68.8441 14.8716C68.8705 15.4043 68.7882 15.9369 68.6022 16.4368C68.4162 16.9367 68.1304 17.3935 67.7622 17.7795C67.3495 18.2074 66.8512 18.5435 66.2998 18.7655C65.7483 18.9876 65.1562 19.0908 64.5622 19.0683C63.9643 19.0736 63.3714 18.9594 62.8184 18.7324C62.2653 18.5053 61.7632 18.17 61.3415 17.7461C60.9199 17.3222 60.5873 16.8183 60.3632 16.2641C60.1391 15.7098 60.028 15.1163 60.0366 14.5185C60.0281 13.9207 60.1392 13.3272 60.3633 12.7729C60.5874 12.2186 60.92 11.7147 61.3416 11.2907C61.7633 10.8668 62.2653 10.5314 62.8184 10.3043C63.3714 10.0771 63.9643 9.96275 64.5622 9.96794C65.1768 9.96609 65.7854 10.0904 66.3501 10.3331C66.8746 10.5457 67.3415 10.8792 67.7127 11.3064L66.947 12.0727C66.6552 11.7293 66.2884 11.4575 65.8749 11.2782C65.4614 11.099 65.0123 11.0172 64.5622 11.0391C64.1091 11.0368 63.6602 11.1259 63.2423 11.3012C62.8245 11.4764 62.4463 11.7342 62.1305 12.0591C61.8146 12.3839 61.5676 12.7692 61.4041 13.1918C61.2407 13.6144 61.1643 14.0656 61.1793 14.5185C61.1685 15.1968 61.3594 15.863 61.7277 16.4327C62.0961 17.0024 62.6253 17.4498 63.2483 17.7184C63.8712 17.9869 64.5599 18.0644 65.227 17.941C65.8941 17.8176 66.5095 17.4989 66.9952 17.0252C67.4422 16.5436 67.7013 15.9174 67.7253 15.2607H64.5622V14.2143H68.7831C68.823 14.4311 68.8434 14.6511 68.8441 14.8716Z" fill="white" stroke="white" stroke-width="0.29037" stroke-miterlimit="10"/>
<path d="M75.5369 11.2335H71.5698V13.9954H75.147V15.0419H71.5698V17.8037H75.5369V18.8742H70.4512V10.1631H75.5369V11.2335Z" fill="white" stroke="white" stroke-width="0.29037" stroke-miterlimit="10"/>
<path d="M80.2562 18.8742H79.1361V11.2335H76.7031V10.1631H82.6892V11.2335H80.2562V18.8742Z" fill="white" stroke="white" stroke-width="0.29037" stroke-miterlimit="10"/>
<path d="M87.021 18.8742V10.1631H88.1396V18.8742H87.021Z" fill="white" stroke="white" stroke-width="0.29037" stroke-miterlimit="10"/>
<path d="M93.1047 18.8742H91.9846V11.2335H89.5518V10.1631H95.5377V11.2335H93.1047V18.8742Z" fill="white" stroke="white" stroke-width="0.29037" stroke-miterlimit="10"/>
<path d="M106.87 17.7481C106.022 18.5934 104.873 19.0681 103.676 19.0681C102.479 19.0681 101.33 18.5934 100.483 17.7481C100.063 17.3233 99.7333 16.8184 99.5129 16.2635C99.2925 15.7087 99.1858 15.1152 99.1994 14.5183C99.1858 13.9214 99.2925 13.3279 99.5129 12.7731C99.7333 12.2182 100.063 11.7134 100.483 11.2885C100.902 10.8693 101.399 10.5369 101.947 10.3103C102.495 10.0836 103.082 9.96725 103.675 9.96778C104.267 9.9683 104.854 10.0857 105.401 10.3133C105.949 10.5409 106.446 10.8742 106.864 11.2942C107.284 11.7179 107.614 12.2216 107.836 12.7755C108.057 13.3293 108.165 13.922 108.153 14.5183C108.166 15.1151 108.059 15.7085 107.839 16.2633C107.619 16.8181 107.289 17.323 106.87 17.7481ZM101.309 17.0187C101.937 17.6456 102.788 17.9977 103.675 17.9977C104.563 17.9977 105.414 17.6456 106.042 17.0187C106.364 16.689 106.616 16.2975 106.782 15.8677C106.949 15.4379 107.026 14.9789 107.01 14.5183C107.026 14.0577 106.949 13.5987 106.782 13.1689C106.616 12.7392 106.364 12.3476 106.042 12.0179C105.414 11.391 104.563 11.0389 103.675 11.0389C102.788 11.0389 101.937 11.391 101.309 12.0179C100.987 12.3479 100.736 12.7395 100.57 13.1692C100.404 13.5989 100.326 14.0579 100.342 14.5183C100.326 14.9788 100.404 15.4377 100.57 15.8674C100.736 16.2971 100.987 16.6887 101.309 17.0187Z" fill="white" stroke="white" stroke-width="0.29037" stroke-miterlimit="10"/>
<path d="M109.724 18.8742V10.1631H111.087L115.32 16.9396H115.368L115.32 15.2608V10.1631H116.44V18.8742H115.272L110.843 11.7694H110.795L110.843 13.4482V18.8742H109.724Z" fill="white" stroke="white" stroke-width="0.29037" stroke-miterlimit="10"/>
<path d="M98.9229 31.5801C97.7027 31.5847 96.5111 31.9508 95.4987 32.6321C94.4863 33.3135 93.6985 34.2795 93.2347 35.4082C92.7709 36.537 92.652 37.7778 92.8929 38.9741C93.1338 40.1704 93.7238 41.2685 94.5883 42.1297C95.4528 42.9909 96.5531 43.5767 97.7503 43.8131C98.9475 44.0494 100.188 43.9258 101.315 43.4577C102.442 42.9897 103.405 42.1982 104.082 41.1832C104.76 40.1682 105.121 38.9753 105.121 37.755C105.133 36.9388 104.981 36.1285 104.673 35.3724C104.366 34.6162 103.909 33.9297 103.331 33.3536C102.753 32.7775 102.065 32.3236 101.307 32.0189C100.55 31.7142 99.7391 31.565 98.9229 31.5801ZM98.9229 41.4974C98.1714 41.551 97.4212 41.3771 96.7699 40.9983C96.1186 40.6195 95.5965 40.0534 95.2714 39.3738C94.9463 38.6941 94.8335 37.9322 94.9474 37.1875C95.0614 36.4427 95.3969 35.7496 95.9104 35.1982C96.4238 34.6468 97.0914 34.2628 97.8262 34.0961C98.5609 33.9295 99.3288 33.9879 100.03 34.2638C100.731 34.5396 101.333 35.0202 101.757 35.6429C102.181 36.2656 102.408 37.0015 102.408 37.755C102.431 38.2309 102.358 38.7067 102.194 39.1541C102.03 39.6016 101.779 40.0118 101.454 40.3605C101.129 40.7093 100.738 40.9895 100.303 41.1847C99.8687 41.38 99.3993 41.4863 98.9229 41.4974ZM85.4013 31.5801C84.181 31.5847 82.9894 31.9508 81.977 32.6321C80.9646 33.3134 80.1767 34.2794 79.7129 35.4081C79.2491 36.5369 79.1302 37.7777 79.371 38.974C79.6119 40.1703 80.2019 41.2684 81.0664 42.1297C81.9309 42.9909 83.0312 43.5767 84.2284 43.8131C85.4256 44.0495 86.666 43.9258 87.793 43.4577C88.92 42.9897 89.883 42.1982 90.5605 41.1832C91.238 40.1682 91.5995 38.9753 91.5995 37.755C91.6115 36.9388 91.4592 36.1285 91.1517 35.3724C90.8441 34.6163 90.3876 33.9297 89.8093 33.3536C89.2311 32.7775 88.5428 32.3236 87.7855 32.0189C87.0282 31.7143 86.2174 31.565 85.4013 31.5801ZM85.4013 41.4974C84.6497 41.551 83.8995 41.3771 83.2482 40.9983C82.5969 40.6195 82.0748 40.0534 81.7497 39.3738C81.4247 38.6941 81.3118 37.9322 81.4257 37.1875C81.5397 36.4427 81.8753 35.7496 82.3887 35.1982C82.9022 34.6468 83.5697 34.2628 84.3045 34.0961C85.0392 33.9295 85.8071 33.9879 86.5082 34.2638C87.2093 34.5396 87.8111 35.0202 88.2353 35.6429C88.6594 36.2656 88.8863 37.0015 88.8863 37.755C88.9091 38.2309 88.8365 38.7067 88.6726 39.1542C88.5088 39.6016 88.2571 40.0118 87.9324 40.3605C87.6076 40.7093 87.2164 40.9895 86.7817 41.1848C86.347 41.38 85.8777 41.4863 85.4013 41.4974ZM69.3165 33.4748V36.0943H75.5851C75.4947 37.323 74.9919 38.4852 74.1583 39.3924C73.5301 40.0327 72.7746 40.5342 71.9407 40.8645C71.1067 41.1949 70.2128 41.3467 69.3165 41.3103C67.4842 41.2855 65.7354 40.5402 64.4485 39.2357C63.1616 37.9312 62.44 36.1725 62.44 34.3401C62.44 32.5076 63.1616 30.7489 64.4485 29.4444C65.7354 28.14 67.4842 27.3947 69.3165 27.3699C71.0764 27.3469 72.7744 28.0193 74.0414 29.241L75.8892 27.3932C75.0247 26.5374 73.998 25.8628 72.8694 25.4089C71.7407 24.955 70.5328 24.7311 69.3165 24.7501C68.0454 24.7316 66.7833 24.966 65.6035 25.4397C64.4238 25.9133 63.35 26.6167 62.4446 27.5091C61.5392 28.4014 60.8202 29.4648 60.3294 30.6375C59.8387 31.8103 59.5859 33.0688 59.5859 34.3401C59.5859 35.6113 59.8387 36.8699 60.3294 38.0426C60.8202 39.2153 61.5392 40.2787 62.4446 41.1711C63.35 42.0634 64.4238 42.7668 65.6035 43.2405C66.7833 43.7141 68.0454 43.9485 69.3165 43.93C70.5585 43.9815 71.7972 43.7683 72.9506 43.3046C74.1039 42.8408 75.1454 42.1371 76.006 41.2401C77.534 39.5723 78.3484 37.3727 78.275 35.112C78.281 34.563 78.2339 34.0147 78.1345 33.4748H69.3165ZM135.097 35.5095C134.726 34.3911 134.02 33.414 133.074 32.7109C132.128 32.0079 130.989 31.6131 129.811 31.5801C129.018 31.585 128.234 31.7508 127.506 32.0673C126.779 32.3839 126.123 32.8447 125.579 33.4219C125.034 33.999 124.612 34.6806 124.339 35.4254C124.065 36.1702 123.946 36.9627 123.987 37.755C123.969 38.5668 124.115 39.3739 124.416 40.1281C124.717 40.8823 125.167 41.5681 125.739 42.1445C126.311 42.7208 126.994 43.176 127.746 43.4828C128.497 43.7896 129.303 43.9417 130.115 43.93C131.133 43.9356 132.135 43.6885 133.033 43.2109C133.932 42.7332 134.697 42.04 135.261 41.1934L133.156 39.79C132.841 40.3138 132.395 40.7465 131.862 41.0458C131.328 41.3452 130.727 41.5008 130.115 41.4974C129.486 41.5215 128.864 41.3559 128.331 41.0223C127.797 40.6886 127.375 40.2023 127.121 39.6263L135.378 36.2114L135.097 35.5095ZM126.677 37.568C126.648 37.1185 126.709 36.6678 126.856 36.2422C127.003 35.8166 127.234 35.4246 127.535 35.0892C127.835 34.7537 128.199 34.4816 128.606 34.2888C129.013 34.0959 129.455 33.9861 129.905 33.9659C130.373 33.9351 130.84 34.0429 131.248 34.2758C131.656 34.5087 131.986 34.8565 132.197 35.2758L126.677 37.568ZM119.964 43.5557H122.677V25.4052H119.964V43.5557ZM115.52 32.9601H115.426C115.014 32.5119 114.511 32.157 113.95 31.919C113.389 31.681 112.784 31.5655 112.175 31.5801C110.583 31.6479 109.078 32.3281 107.976 33.4787C106.873 34.6293 106.257 36.1614 106.257 37.755C106.257 39.3487 106.873 40.8808 107.976 42.0314C109.078 43.182 110.583 43.8622 112.175 43.93C112.786 43.9462 113.394 43.8291 113.956 43.5868C114.517 43.3444 115.019 42.9826 115.426 42.5266H115.52V43.4154C115.52 45.7779 114.257 47.0409 112.222 47.0409C111.544 47.0246 110.886 46.8069 110.332 46.4153C109.778 46.0237 109.353 45.4761 109.111 44.8422L106.749 45.8246C107.194 46.9087 107.953 47.8351 108.928 48.4852C109.903 49.1353 111.05 49.4794 112.222 49.4734C115.403 49.4734 118.093 47.6023 118.093 43.0412V31.9542H115.52V32.9601ZM112.409 41.4974C111.471 41.4179 110.598 40.9892 109.961 40.2961C109.324 39.6031 108.971 38.6962 108.971 37.755C108.971 36.8139 109.324 35.907 109.961 35.214C110.598 34.5209 111.471 34.0922 112.409 34.0127C112.876 34.0355 113.333 34.1519 113.754 34.3552C114.174 34.5584 114.549 34.8443 114.857 35.1957C115.165 35.5471 115.399 35.9569 115.545 36.4006C115.691 36.8443 115.746 37.3129 115.707 37.7783C115.744 38.2409 115.686 38.7062 115.539 39.1461C115.391 39.5861 115.157 39.9919 114.849 40.3391C114.541 40.6863 114.166 40.9678 113.747 41.1668C113.328 41.3659 112.873 41.4783 112.409 41.4974ZM147.807 25.4055H141.315V43.5557H144.024V36.6791H147.807C148.573 36.7211 149.34 36.6065 150.06 36.3422C150.781 36.0779 151.44 35.6695 151.997 35.1419C152.554 34.6144 152.998 33.9788 153.301 33.2739C153.605 32.569 153.761 31.8097 153.761 31.0423C153.761 30.275 153.605 29.5156 153.301 28.8108C152.998 28.1059 152.554 27.4703 151.997 26.9427C151.44 26.4152 150.781 26.0068 150.06 25.7425C149.34 25.4782 148.573 25.3635 147.807 25.4055ZM147.877 34.1532H144.024V27.9316H147.877C148.291 27.923 148.702 27.9971 149.087 28.1496C149.472 28.3021 149.823 28.5299 150.118 28.8196C150.414 29.1093 150.649 29.4551 150.81 29.8368C150.97 30.2185 151.053 30.6284 151.053 31.0424C151.053 31.4564 150.97 31.8663 150.81 32.248C150.649 32.6297 150.414 32.9755 150.118 33.2652C149.823 33.5549 149.472 33.7827 149.087 33.9352C148.702 34.0877 148.291 34.1618 147.877 34.1532ZM164.619 31.5467C163.63 31.489 162.646 31.7212 161.788 32.2148C160.929 32.7084 160.233 33.4419 159.785 34.3254L162.191 35.3295C162.429 34.891 162.79 34.5316 163.23 34.2951C163.669 34.0587 164.168 33.9556 164.666 33.9984C165.353 33.9314 166.039 34.1395 166.573 34.5772C167.107 35.0149 167.445 35.6464 167.515 36.3335V36.5203C166.645 36.0581 165.674 35.8175 164.689 35.8198C162.097 35.8198 159.459 37.2442 159.459 39.9062C159.484 40.4672 159.621 41.0174 159.863 41.5242C160.105 42.031 160.446 42.4841 160.867 42.8565C161.287 43.2289 161.778 43.5131 162.31 43.6922C162.842 43.8713 163.405 43.9416 163.965 43.8991C164.647 43.9392 165.328 43.7958 165.935 43.4837C166.543 43.1715 167.056 42.7022 167.421 42.1245H167.515V43.5255H170.13V36.5671C170.13 33.3447 167.725 31.5467 164.619 31.5467ZM164.292 41.4939C163.405 41.4939 162.167 41.0504 162.167 39.9528C162.167 38.5519 163.708 38.0147 165.039 38.0147C165.904 37.9917 166.759 38.2014 167.515 38.6219C167.415 39.4091 167.034 40.1337 166.441 40.6617C165.849 41.1897 165.086 41.4853 164.292 41.4939ZM179.657 31.9436L176.551 39.8127H176.458L173.235 31.9436H170.317L175.15 42.9417L172.395 49.0595H175.22L182.669 31.9436H179.657ZM155.256 43.5557H157.964V25.4055H155.256V43.5557Z" fill="white"/>
<path d="M15.1503 10.9443C14.6743 11.5135 14.4339 12.2432 14.4784 12.984V45.0933C14.4337 45.834 14.6741 46.5638 15.1503 47.133L15.2578 47.2377L33.2448 29.2508V28.8264L15.2578 10.8389L15.1503 10.9443Z" fill="url(#paint0_linear_154_497)"/>
<path d="M39.2399 35.2489L33.2446 29.2507V28.8263L39.2414 22.8296L39.3765 22.9067L46.4801 26.943C48.5093 28.0957 48.5093 29.982 46.4801 31.1355L39.3765 35.1718L39.2399 35.2489Z" fill="url(#paint1_linear_154_497)"/>
<path d="M39.3767 35.1711L33.2448 29.0386L15.1504 47.1329C15.5638 47.4975 16.0918 47.706 16.6428 47.7223C17.1939 47.7386 17.7332 47.5616 18.1675 47.222L39.3767 35.1711Z" fill="url(#paint2_linear_154_497)"/>
<path d="M39.3767 22.9058L18.1675 10.8549C17.7332 10.5153 17.1939 10.3383 16.6428 10.3545C16.0918 10.3708 15.5638 10.5794 15.1504 10.944L33.2448 29.0384L39.3767 22.9058Z" fill="url(#paint3_linear_154_497)"/>
<path opacity="0.2" d="M39.2415 35.0361L18.1675 47.01C17.75 47.3278 17.2404 47.5013 16.7156 47.5041C16.1909 47.5069 15.6795 47.3389 15.2586 47.0255L15.1504 47.1337L15.2578 47.2384L15.2586 47.2376C15.6794 47.5512 16.1908 47.7193 16.7156 47.7165C17.2404 47.7137 17.75 47.5401 18.1675 47.2221L39.3767 35.1712L39.2415 35.0361Z" fill="black"/>
<path opacity="0.12" d="M15.1508 46.9215C14.6748 46.3523 14.4344 45.6226 14.4789 44.8818V45.094C14.4343 45.8347 14.6747 46.5644 15.1508 47.1337L15.259 47.0255L15.1508 46.9215Z" fill="black"/>
<path opacity="0.12" d="M46.4805 30.9226L39.2417 35.0359L39.3769 35.171L46.4805 31.1347C46.8983 30.9533 47.26 30.6633 47.5276 30.2947C47.7953 29.9261 47.9593 29.4925 48.0025 29.0391C47.9127 29.4497 47.7283 29.8338 47.4641 30.1607C47.1999 30.4877 46.8631 30.7485 46.4805 30.9226Z" fill="black"/>
<path opacity="0.25" d="M18.1675 11.068L46.4804 27.1545C46.8632 27.3285 47.2001 27.5895 47.4643 27.9166C47.7285 28.2437 47.9128 28.6279 48.0024 29.0388C47.9595 28.5851 47.7956 28.1513 47.5279 27.7825C47.2602 27.4138 46.8984 27.1237 46.4804 26.9424L18.1675 10.8559C16.1384 9.70299 14.4785 10.6606 14.4785 12.9848V13.1969C14.4785 10.8729 16.1384 9.91525 18.1675 11.068Z" fill="white"/>
</g>
<defs>
<linearGradient id="paint0_linear_154_497" x1="31.6497" y1="12.6454" x2="7.2841" y2="37.011" gradientUnits="userSpaceOnUse">
<stop stop-color="#00A0FF"/>
<stop offset="0.00657" stop-color="#00A1FF"/>
<stop offset="0.2601" stop-color="#00BEFF"/>
<stop offset="0.5122" stop-color="#00D2FF"/>
<stop offset="0.7604" stop-color="#00DFFF"/>
<stop offset="1" stop-color="#00E3FF"/>
</linearGradient>
<linearGradient id="paint1_linear_154_497" x1="49.122" y1="29.0392" x2="13.9917" y2="29.0392" gradientUnits="userSpaceOnUse">
<stop stop-color="#FFE000"/>
<stop offset="0.4087" stop-color="#FFBD00"/>
<stop offset="0.7754" stop-color="#FFA500"/>
<stop offset="1" stop-color="#FF9C00"/>
</linearGradient>
<linearGradient id="paint2_linear_154_497" x1="36.0448" y1="32.3707" x2="3.00314" y2="65.4124" gradientUnits="userSpaceOnUse">
<stop stop-color="#FF3A44"/>
<stop offset="1" stop-color="#C31162"/>
</linearGradient>
<linearGradient id="paint3_linear_154_497" x1="10.5944" y1="0.255726" x2="25.3489" y2="15.0102" gradientUnits="userSpaceOnUse">
<stop stop-color="#32A071"/>
<stop offset="0.0685" stop-color="#2DA771"/>
<stop offset="0.4762" stop-color="#15CF74"/>
<stop offset="0.8009" stop-color="#06E775"/>
<stop offset="1" stop-color="#00F076"/>
</linearGradient>
<clipPath id="clip0_154_497">
<rect width="196" height="58.0744" fill="white"/>
</clipPath>
</defs>
</svg>
