<?xml version="1.0" encoding="UTF-8" standalone="no"?>
<!DOCTYPE svg PUBLIC "-//W3C//DTD SVG 1.1//EN" "http://www.w3.org/Graphics/SVG/1.1/DTD/svg11.dtd">
<!-- Created with Vectornator (http://vectornator.io/) -->
<svg height="100%" stroke-miterlimit="10" style="fill-rule:nonzero;clip-rule:evenodd;stroke-linecap:round;stroke-linejoin:round;" version="1.1" viewBox="0 0 100 100" width="100%" xml:space="preserve" xmlns="http://www.w3.org/2000/svg" xmlns:vectornator="http://vectornator.io" xmlns:xlink="http://www.w3.org/1999/xlink">
<defs/>
<g id="Untitled" vectornator:layerName="Untitled">
<path d="M0 50C0 22.3858 22.3858 0 50 0C77.6142 0 100 22.3858 100 50C100 77.6142 77.6142 100 50 100C22.3858 100 0 77.6142 0 50Z" fill="#ffffff" fill-opacity="0.3" fill-rule="nonzero" opacity="1" stroke="none"/>
<g opacity="1">
<clipPath id="ClipPath">
<path d="M21.3281 12.8462L78.9997 12.8462L78.9997 12.8462L78.9997 87.1539L78.9997 87.1539L21.3281 87.1539L21.3281 87.1539L21.3281 12.8462L21.3281 12.8462Z"/>
</clipPath>
<g clip-path="url(#ClipPath)">
<g opacity="1">
<clipPath id="ClipPath_2">
<path d="M23.2949 14.5098L86.0501 14.5098L86.0501 14.5098L86.0501 85.4459L86.0501 85.4459L23.2949 85.4459L23.2949 85.4459L23.2949 14.5098L23.2949 14.5098Z"/>
</clipPath>
<g clip-path="url(#ClipPath_2)">
<path d="M49.8025 14.5098C64.6458 14.5098 76.3079 26.1769 76.3079 39.9656C76.3079 49.5112 62.525 70.194 54.0442 82.9219C51.924 86.1037 47.6832 86.1037 45.5625 82.9219C37.0808 70.194 23.2988 49.5108 23.2988 39.9656C23.2988 26.1768 34.961 14.5098 49.8042 14.5098L49.8025 14.5098ZM49.8025 23.525C58.8139 23.525 66.7654 30.9496 66.7654 39.9647C66.7654 49.5103 58.8138 56.9348 49.8025 56.9348C40.7913 56.9348 33.3699 49.5102 33.3699 39.9647C33.3699 30.9494 40.7913 23.525 49.8025 23.525L49.8025 23.525Z" fill="#031c46" fill-rule="evenodd" opacity="1" stroke="none"/>
</g>
</g>
<path d="M73.2772 69.2906L73.2514 69.2906C72.3685 69.2838 71.4268 68.9253 70.7041 68.2023L70.704 68.2022L61.0773 58.5754L60.5102 58.0084L59.8192 58.4155C56.7259 60.2385 53.1369 61.2878 49.2686 61.2878C37.6625 61.2878 28.2094 51.8349 28.2094 40.2286C28.2094 28.6225 37.6623 19.1694 49.2686 19.1694C60.8751 19.1694 70.3278 28.6223 70.3278 40.2286C70.3278 44.8109 68.8385 49.0101 66.3453 52.5008L65.8355 53.2147L66.4558 53.835L75.7924 63.1716C77.1856 64.5648 77.1856 66.867 75.7924 68.2602L76.4581 68.9259L75.7924 68.2603C75.1273 68.9253 74.1774 69.2906 73.2772 69.2906ZM35.359 40.2286C35.359 47.8755 41.6218 54.1383 49.2687 54.1383C56.9156 54.1383 63.1784 47.8755 63.1784 40.2286C63.1784 32.5817 56.9156 26.3189 49.2687 26.3189C41.6218 26.3189 35.359 32.5817 35.359 40.2286Z" fill="#031c46" fill-rule="nonzero" opacity="1" stroke="#fbb83a" stroke-linecap="butt" stroke-linejoin="miter" stroke-width="2.07113"/>
<path d="M65.9082 64.889L70.62 56.5527C72.6911 58.6239 76.8023 62.7454 76.6781 62.6626C76.5227 62.559 79.5259 65.6657 76.6781 68.8242C74.3998 71.3509 71.4485 70.1186 70.2576 69.1866L65.9082 64.889Z" fill="#fbb83a" fill-rule="nonzero" opacity="1" stroke="#fbb83a" stroke-linecap="butt" stroke-linejoin="miter" stroke-width="0.103556"/>
<path d="M32.9238 40.088C32.9238 30.9944 40.2957 23.6225 49.3893 23.6225C58.4829 23.6225 65.8548 30.9944 65.8548 40.088C65.8548 49.1816 58.4829 56.5535 49.3893 56.5535C40.2957 56.5535 32.9238 49.1816 32.9238 40.088Z" fill="#ffffff" fill-rule="nonzero" opacity="1" stroke="none"/>
<path d="M41.7109 33.0016C41.7109 32.6763 41.9746 32.4126 42.3 32.4126L45.5198 32.4126C45.8451 32.4126 46.1089 32.6763 46.1089 33.0016L46.1089 36.2215C46.1089 36.5468 45.8451 36.8105 45.5198 36.8105L42.3 36.8105C41.9746 36.8105 41.7109 36.5468 41.7109 36.2215L41.7109 33.0016ZM44.8524 35.5541L44.8524 33.6692L42.9676 33.6692L42.9676 35.5541L44.8524 35.5541ZM41.7109 43.6823C41.7109 43.357 41.9746 43.0933 42.3 43.0933L45.5198 43.0933C45.8451 43.0933 46.1089 43.357 46.1089 43.6823L46.1089 46.9024C46.1089 47.2277 45.8451 47.4914 45.5198 47.4914L42.3 47.4914C41.9746 47.4914 41.7109 47.2277 41.7109 46.9024L41.7109 43.6823ZM44.8524 46.235L44.8524 44.3501L42.9676 44.3501L42.9676 46.235L44.8524 46.235ZM52.3918 33.0016C52.3918 32.6763 52.6555 32.4126 52.9808 32.4126L56.2007 32.4126C56.526 32.4126 56.7897 32.6763 56.7897 33.0016L56.7897 36.2215C56.7897 36.5468 56.526 36.8105 56.2007 36.8105L52.9808 36.8105C52.6555 36.8105 52.3918 36.5468 52.3918 36.2215L52.3918 33.0016ZM55.5331 35.5541L55.5331 33.6692L53.6483 33.6692L53.6483 35.5541L55.5331 35.5541ZM55.5331 38.6562C55.5331 38.3309 55.7968 38.0671 56.1221 38.0671L56.2007 38.0671C56.526 38.0671 56.7897 38.3309 56.7897 38.6562L56.7897 42.5043C56.7897 42.8296 56.526 43.0933 56.2007 43.0933L52.9808 43.0933C52.6555 43.0933 52.3918 42.8296 52.3918 42.5043L52.3918 42.4259C52.3918 42.1006 52.6555 41.8368 52.9808 41.8368L55.5331 41.8368L55.5331 38.6562ZM52.3918 44.9391C52.3918 44.6138 52.6555 44.3501 52.9808 44.3501L56.2007 44.3501C56.526 44.3501 56.7897 44.6138 56.7897 44.9391L56.7897 46.9024C56.7897 47.2277 56.526 47.4914 56.2007 47.4914L56.1221 47.4914C55.7968 47.4914 55.5331 47.2277 55.5331 46.9024L55.5331 45.6065L53.6483 45.6065L53.6483 46.9024C53.6483 47.2277 53.3845 47.4914 53.0592 47.4914L52.9808 47.4914C52.6555 47.4914 52.3918 47.2277 52.3918 46.9024L52.3918 44.9391ZM47.3655 33.0016C47.3655 32.6763 47.6292 32.4126 47.9545 32.4126L50.5462 32.4126C50.8715 32.4126 51.1352 32.6763 51.1352 33.0016L51.1352 36.2215C51.1352 36.5468 50.8715 36.8105 50.5462 36.8105L50.4676 36.8105C50.1423 36.8105 49.8786 36.5468 49.8786 36.2215L49.8786 33.6692L47.9545 33.6692C47.6292 33.6692 47.3655 33.4055 47.3655 33.0802L47.3655 33.0016ZM49.8786 38.6562C49.8786 38.3309 50.1423 38.0671 50.4676 38.0671L53.0592 38.0671C53.3845 38.0671 53.6483 38.3309 53.6483 38.6562L53.6483 39.9914C53.6483 40.3167 53.3845 40.5804 53.0592 40.5804L52.9808 40.5804C52.6555 40.5804 52.3918 40.3167 52.3918 39.9914L52.3918 39.3238L51.1352 39.3238L51.1352 41.2478C51.1352 41.5731 50.8715 41.8368 50.5462 41.8368L48.6221 41.8368L48.6221 43.0933L50.5462 43.0933C50.8715 43.0933 51.1352 43.357 51.1352 43.6823L51.1352 46.9024C51.1352 47.2277 50.8715 47.4914 50.5462 47.4914L50.4676 47.4914C50.1423 47.4914 49.8786 47.2277 49.8786 46.9024L49.8786 44.3501L47.9545 44.3501C47.6292 44.3501 47.3655 44.0864 47.3655 43.7611L47.3655 41.1694C47.3655 40.8441 47.6292 40.5804 47.9545 40.5804L49.8786 40.5804L49.8786 38.6562ZM47.9545 45.6065L48.0331 45.6065C48.3584 45.6065 48.6221 45.8703 48.6221 46.1956L48.6221 46.9024C48.6221 47.2277 48.3584 47.4914 48.0331 47.4914L47.9545 47.4914C47.6292 47.4914 47.3655 47.2277 47.3655 46.9024L47.3655 46.1956C47.3655 45.8703 47.6292 45.6065 47.9545 45.6065ZM44.813 40.5804L45.5198 40.5804C45.8451 40.5804 46.1089 40.8441 46.1089 41.1694L46.1089 41.2478C46.1089 41.5731 45.8451 41.8368 45.5198 41.8368L44.813 41.8368C44.4877 41.8368 44.224 41.5731 44.224 41.2478L44.224 41.1694C44.224 40.8441 44.4877 40.5804 44.813 40.5804ZM47.3655 35.5147C47.3655 35.1894 47.6292 34.9257 47.9545 34.9257L48.0331 34.9257C48.3584 34.9257 48.6221 35.1894 48.6221 35.5147L48.6221 38.7348C48.6221 39.0601 48.3584 39.3238 48.0331 39.3238L42.9676 39.3238L42.9676 41.2478C42.9676 41.5731 42.7039 41.8368 42.3786 41.8368L42.3 41.8368C41.9746 41.8368 41.7109 41.5731 41.7109 41.2478L41.7109 38.6562C41.7109 38.3309 41.9746 38.0671 42.3 38.0671L47.3655 38.0671L47.3655 35.5147Z" fill="#080a57" fill-rule="nonzero" opacity="1" stroke="none"/>
<path d="M38.6257 35.8666C38.8424 35.8666 39.0502 35.7805 39.2035 35.6273C39.3567 35.4741 39.4428 35.2662 39.4428 35.0495L39.4428 30.964C39.4428 30.7473 39.5289 30.5395 39.6821 30.3862C39.8354 30.233 40.0432 30.1469 40.2599 30.1469L44.754 30.1469C44.9707 30.1469 45.1785 30.0608 45.3317 29.9076C45.485 29.7543 45.5711 29.5465 45.5711 29.3298C45.5711 29.1131 45.485 28.9053 45.3317 28.752C45.1785 28.5988 44.9707 28.5127 44.754 28.5127L40.2599 28.5127C39.6098 28.5127 38.9863 28.771 38.5266 29.2307C38.0669 29.6904 37.8086 30.3139 37.8086 30.964L37.8086 35.0495C37.8086 35.2662 37.8947 35.4741 38.0479 35.6273C38.2012 35.7805 38.409 35.8666 38.6257 35.8666Z" fill="#080a57" fill-rule="nonzero" opacity="1" stroke="none"/>
<path d="M58.2369 28.5127L53.7429 28.5127C53.5262 28.5127 53.3183 28.5988 53.1651 28.752C53.0119 28.9053 52.9258 29.1131 52.9258 29.3298C52.9258 29.5465 53.0119 29.7543 53.1651 29.9076C53.3183 30.0608 53.5262 30.1469 53.7429 30.1469L58.2369 30.1469C58.4537 30.1469 58.6615 30.233 58.8147 30.3862C58.968 30.5395 59.054 30.7473 59.054 30.964L59.054 35.0495C59.054 35.2662 59.1401 35.4741 59.2934 35.6273C59.4466 35.7805 59.6544 35.8666 59.8712 35.8666C60.0879 35.8666 60.2957 35.7805 60.4489 35.6273C60.6022 35.4741 60.6883 35.2662 60.6883 35.0495L60.6883 30.964C60.6883 30.3139 60.43 29.6904 59.9703 29.2307C59.5106 28.771 58.8871 28.5127 58.2369 28.5127Z" fill="#080a57" fill-rule="nonzero" opacity="1" stroke="none"/>
<path d="M59.8712 44.0376C59.6544 44.0376 59.4466 44.1237 59.2934 44.2769C59.1401 44.4302 59.054 44.638 59.054 44.8547L59.054 48.9402C59.054 49.1569 58.968 49.3648 58.8147 49.518C58.6615 49.6712 58.4537 49.7573 58.2369 49.7573L53.7429 49.7573C53.5262 49.7573 53.3183 49.8434 53.1651 49.9966C53.0119 50.1499 52.9258 50.3577 52.9258 50.5744C52.9258 50.7911 53.0119 50.999 53.1651 51.1522C53.3183 51.3054 53.5262 51.3915 53.7429 51.3915L58.2369 51.3915C58.8871 51.3915 59.5106 51.1333 59.9703 50.6735C60.43 50.2138 60.6883 49.5903 60.6883 48.9402L60.6883 44.8547C60.6883 44.638 60.6022 44.4302 60.4489 44.2769C60.2957 44.1237 60.0879 44.0376 59.8712 44.0376Z" fill="#080a57" fill-rule="nonzero" opacity="1" stroke="none"/>
<path d="M44.754 49.7573L40.2599 49.7573C40.0432 49.7573 39.8354 49.6712 39.6821 49.518C39.5289 49.3648 39.4428 49.1569 39.4428 48.9402L39.4428 44.8547C39.4428 44.638 39.3567 44.4302 39.2035 44.2769C39.0502 44.1237 38.8424 44.0376 38.6257 44.0376C38.409 44.0376 38.2012 44.1237 38.0479 44.2769C37.8947 44.4302 37.8086 44.638 37.8086 44.8547L37.8086 48.9402C37.8086 49.5903 38.0669 50.2138 38.5266 50.6735C38.9863 51.1333 39.6098 51.3915 40.2599 51.3915L44.754 51.3915C44.9707 51.3915 45.1785 51.3054 45.3317 51.1522C45.485 50.999 45.5711 50.7911 45.5711 50.5744C45.5711 50.3577 45.485 50.1499 45.3317 49.9966C45.1785 49.8434 44.9707 49.7573 44.754 49.7573Z" fill="#080a57" fill-rule="nonzero" opacity="1" stroke="none"/>
<path d="M41.4609 32.1719L47.0872 32.1719L47.0872 32.1719L47.0872 37.7982L47.0872 37.7982L41.4609 37.7982L41.4609 37.7982L41.4609 32.1719L41.4609 32.1719Z" fill="#ffffff" fill-rule="nonzero" opacity="1" stroke="none"/>
<path d="M41.4609 42.3701L47.0872 42.3701L47.0872 42.3701L47.0872 47.9964L47.0872 47.9964L41.4609 47.9964L41.4609 47.9964L41.4609 42.3701L41.4609 42.3701Z" fill="#ffffff" fill-rule="nonzero" opacity="1" stroke="none"/>
<path d="M52.0098 32.1719L57.6361 32.1719L57.6361 32.1719L57.6361 37.7982L57.6361 37.7982L52.0098 37.7982L52.0098 37.7982L52.0098 32.1719L52.0098 32.1719Z" fill="#ffffff" fill-rule="nonzero" opacity="1" stroke="none"/>
<path d="M45.6342 31.6493C45.9405 31.9557 46.1128 32.3711 46.1131 32.8043L46.1131 35.1809C46.1128 35.6141 45.9405 36.0295 45.6342 36.3358C45.3278 36.6422 44.9124 36.8144 44.4792 36.8147L42.1026 36.8147C41.6694 36.8144 41.254 36.6422 40.9477 36.3358C40.6413 36.0295 40.4691 35.6141 40.4688 35.1809L40.4688 32.8043C40.4691 32.3711 40.6413 31.9557 40.9477 31.6493C41.254 31.343 41.6694 31.1707 42.1026 31.1704L44.4792 31.1704C44.9124 31.1707 45.3278 31.343 45.6342 31.6493ZM43.2675 35.9298C44.3507 35.9298 45.2287 35.0518 45.2287 33.9687C45.2287 32.8856 44.3507 32.0075 43.2675 32.0075C42.1844 32.0075 41.3064 32.8856 41.3064 33.9687C41.3064 35.0518 42.1844 35.9298 43.2675 35.9298Z" fill="#fbb83a" fill-rule="evenodd" opacity="1" stroke="none"/>
<path d="M57.6869 31.6498C57.9933 31.9561 58.1655 32.3715 58.1658 32.8048L58.1658 35.1813C58.1655 35.6146 57.9933 36.03 57.6869 36.3363C57.3806 36.6427 56.9652 36.8149 56.5319 36.8152L54.1554 36.8152C53.7221 36.8149 53.3067 36.6427 53.0004 36.3363C52.694 36.03 52.5218 35.6146 52.5215 35.1813L52.5215 32.8048C52.5218 32.3715 52.694 31.9561 53.0004 31.6498C53.3067 31.3435 53.7221 31.1712 54.1554 31.1709L56.5319 31.1709C56.9652 31.1712 57.3806 31.3435 57.6869 31.6498ZM55.3203 35.7597C56.3094 35.7597 57.1112 34.9579 57.1112 33.9688C57.1112 32.9796 56.3094 32.1778 55.3203 32.1778C54.3311 32.1778 53.5293 32.9796 53.5293 33.9688C53.5293 34.9579 54.3311 35.7597 55.3203 35.7597Z" fill="#080a57" fill-rule="evenodd" opacity="1" stroke="none"/>
<g opacity="1">
<clipPath id="ClipPath_3">
<path d="M40.9609 31.8735L45.5304 31.8735L45.5304 31.8735L45.5304 36.4431L45.5304 36.4431L40.9609 36.4431L40.9609 36.4431L40.9609 31.8735L40.9609 31.8735Z"/>
</clipPath>
<g clip-path="url(#ClipPath_3)">
<path d="M43.2467 31.9868C42.0495 31.9868 41.0762 32.9601 41.0762 34.1574C41.0762 35.3546 42.0495 36.3279 43.2467 36.3279C44.4439 36.3279 45.4172 35.3546 45.4172 34.1574C45.4172 32.9601 44.4439 31.9868 43.2467 31.9868ZM43.2467 35.9943C42.2368 35.9943 41.4097 35.1718 41.4097 34.1574C41.4097 33.1475 42.2323 32.3204 43.2467 32.3204C44.2566 32.3204 45.0837 33.1429 45.0837 34.1574C45.0837 35.1672 44.2566 35.9943 43.2467 35.9943Z" fill="#fbb83a" fill-rule="nonzero" opacity="1" stroke="none"/>
<path d="M44.1607 34.2441L42.3329 34.2441C42.2004 34.2441 42.0907 34.3492 42.0862 34.4818C42.0816 34.6508 42.1456 34.9204 42.3603 35.1398C42.5066 35.2906 42.7807 35.4733 43.2514 35.4733C43.7221 35.4733 43.9962 35.2906 44.1425 35.1398C44.3527 34.9204 44.4212 34.6463 44.4166 34.4818C44.4075 34.3447 44.2978 34.2441 44.1607 34.2441ZM42.6482 35.021C42.8127 34.9022 43.0184 34.829 43.2468 34.829C43.4753 34.829 43.6809 34.9022 43.8454 35.021C43.6946 35.1352 43.4936 35.19 43.2468 35.19C43.0001 35.19 42.799 35.1352 42.6482 35.021Z" fill="#fbb83a" fill-rule="nonzero" opacity="1" stroke="none"/>
<path d="M42.5483 33.8101C42.7174 33.8101 42.8545 33.673 42.8545 33.5039C42.8545 33.3348 42.7174 33.1978 42.5483 33.1978C42.3793 33.1978 42.2422 33.3348 42.2422 33.5039C42.2422 33.673 42.3793 33.8101 42.5483 33.8101Z" fill="#fbb83a" fill-rule="nonzero" opacity="1" stroke="none"/>
<path d="M43.9448 33.8101C44.1139 33.8101 44.251 33.673 44.251 33.5039C44.251 33.3348 44.1139 33.1978 43.9448 33.1978C43.7757 33.1978 43.6387 33.3348 43.6387 33.5039C43.6387 33.673 43.7757 33.8101 43.9448 33.8101Z" fill="#fbb83a" fill-rule="nonzero" opacity="1" stroke="none"/>
</g>
</g>
<g opacity="1">
<clipPath id="ClipPath_4">
<path d="M53.8809 32.4829L56.8231 32.4829L56.8231 32.4829L56.8231 35.2999L56.8231 35.2999L53.8809 35.2999L53.8809 35.2999L53.8809 32.4829L53.8809 32.4829Z"/>
</clipPath>
<g clip-path="url(#ClipPath_4)">
<path d="M55.2435 32.5892C55.278 32.4829 55.4284 32.4829 55.463 32.5892L55.7237 33.3916C55.7391 33.4391 55.7834 33.4713 55.8334 33.4713L56.677 33.4713C56.7888 33.4713 56.8353 33.6143 56.7449 33.68L56.0623 34.1759C56.0219 34.2053 56.005 34.2573 56.0204 34.3049L56.2811 35.1072C56.3157 35.2136 56.194 35.3019 56.1036 35.2362L55.421 34.7404C55.3806 34.711 55.3258 34.711 55.2854 34.7404L54.6029 35.2362C54.5124 35.3019 54.3908 35.2136 54.4253 35.1072L54.686 34.3049C54.7015 34.2573 54.6845 34.2053 54.6441 34.1759L53.9616 33.68C53.8712 33.6143 53.9176 33.4713 54.0294 33.4713L54.873 33.4713C54.923 33.4713 54.9673 33.4391 54.9828 33.3916L55.2435 32.5892Z" fill="#080a57" fill-rule="nonzero" opacity="1" stroke="none"/>
</g>
</g>
<g opacity="1">
<clipPath id="ClipPath_5">
<path d="M40.4629 43.1909L47.1828 43.1909L47.1828 43.1909L47.1828 48.725L47.1828 48.725L40.4629 48.725L40.4629 48.725L40.4629 43.1909L40.4629 43.1909Z"/>
</clipPath>
<g clip-path="url(#ClipPath_5)">
<g opacity="1">
<clipPath id="ClipPath_6">
<path d="M40.7129 43.3896L46.93 43.3896L46.93 46.968L40.7129 46.968L40.7129 43.3896Z"/>
</clipPath>
<g clip-path="url(#ClipPath_6)">
<path d="M45.4676 46.955L43.1535 46.955C43.1362 46.955 43.119 46.9537 43.1019 46.9509C43.0848 46.9482 43.068 46.9441 43.0514 46.9386C43.0349 46.9332 43.0188 46.9265 43.0032 46.9184C42.9876 46.9104 42.9726 46.9011 42.9583 46.8907C42.9439 46.8802 42.9304 46.8687 42.9177 46.8561C42.905 46.8435 42.8932 46.8298 42.8823 46.8153C42.8715 46.8008 42.8617 46.7855 42.8529 46.7694C42.8443 46.7533 42.8366 46.7366 42.8303 46.7192L41.8759 44.1391L41.0805 44.1391C41.0689 44.1394 41.0574 44.1391 41.0458 44.1381C41.0344 44.1372 41.0229 44.1356 41.0115 44.1334C41.0001 44.1313 40.9889 44.1285 40.9777 44.1251C40.9667 44.1217 40.9557 44.1177 40.945 44.1132C40.9342 44.1086 40.9237 44.1035 40.9134 44.0978C40.9031 44.0921 40.8931 44.0859 40.8834 44.0791C40.8737 44.0723 40.8643 44.0651 40.8553 44.0573C40.8463 44.0495 40.8377 44.0413 40.8293 44.0326C40.8211 44.0239 40.8132 44.0148 40.8058 44.0052C40.7984 43.9956 40.7915 43.9857 40.7849 43.9754C40.7784 43.9651 40.7724 43.9545 40.7669 43.9436C40.7614 43.9326 40.7563 43.9214 40.7518 43.9099C40.7474 43.8984 40.7434 43.8867 40.74 43.8748C40.7366 43.8629 40.7338 43.8508 40.7315 43.8386C40.7292 43.8264 40.7275 43.8141 40.7264 43.8017C40.7252 43.7893 40.7246 43.7768 40.7246 43.7644C40.7246 43.752 40.7252 43.7395 40.7264 43.7271C40.7275 43.7147 40.7292 43.7024 40.7315 43.6902C40.7338 43.678 40.7366 43.6659 40.74 43.654C40.7434 43.6421 40.7474 43.6304 40.7518 43.6189C40.7563 43.6075 40.7614 43.5962 40.7669 43.5853C40.7724 43.5743 40.7784 43.5637 40.7849 43.5534C40.7915 43.5431 40.7984 43.5332 40.8058 43.5236C40.8132 43.5141 40.8211 43.5049 40.8293 43.4962C40.8377 43.4875 40.8463 43.4793 40.8553 43.4715C40.8643 43.4637 40.8737 43.4564 40.8834 43.4497C40.8931 43.4429 40.9031 43.4367 40.9134 43.431C40.9237 43.4254 40.9342 43.4202 40.945 43.4157C40.9557 43.4111 40.9667 43.4071 40.9777 43.4037C40.9889 43.4003 41.0001 43.3976 41.0115 43.3954C41.0229 43.3932 41.0344 43.3917 41.0458 43.3907C41.0574 43.3898 41.0689 43.3895 41.0805 43.3897L42.1108 43.3897C42.1281 43.3897 42.1453 43.3911 42.1625 43.3938C42.1795 43.3965 42.1963 43.4006 42.2129 43.4061C42.2295 43.4115 42.2456 43.4182 42.2612 43.4263C42.2768 43.4344 42.2918 43.4436 42.306 43.454C42.3204 43.4645 42.3339 43.476 42.3466 43.4887C42.3594 43.5013 42.3711 43.5149 42.382 43.5294C42.3928 43.5439 42.4026 43.5593 42.4114 43.5754C42.4201 43.5915 42.4277 43.6082 42.4341 43.6255L43.3889 46.2057L45.2585 46.2057L45.9979 44.7073L43.6523 44.7073C43.6408 44.7076 43.6292 44.7073 43.6177 44.7063C43.6062 44.7054 43.5947 44.7038 43.5834 44.7016C43.572 44.6995 43.5607 44.6967 43.5496 44.6933C43.5384 44.69 43.5275 44.686 43.5168 44.6814C43.506 44.6768 43.4955 44.6717 43.4852 44.666C43.475 44.6603 43.4649 44.6541 43.4553 44.6473C43.4456 44.6406 43.4362 44.6333 43.4271 44.6255C43.4181 44.6177 43.4095 44.6095 43.4012 44.6008C43.3929 44.5921 43.3851 44.583 43.3777 44.5734C43.3702 44.5639 43.3633 44.554 43.3568 44.5437C43.3503 44.5334 43.3443 44.5227 43.3387 44.5118C43.3332 44.5008 43.3282 44.4897 43.3237 44.4782C43.3192 44.4667 43.3153 44.4549 43.3119 44.443C43.3085 44.4312 43.3056 44.4191 43.3033 44.4069C43.301 44.3946 43.2993 44.3824 43.2981 44.37C43.297 44.3576 43.2965 44.3451 43.2965 44.3327C43.2965 44.3202 43.297 44.3078 43.2981 44.2954C43.2993 44.283 43.301 44.2706 43.3033 44.2585C43.3056 44.2462 43.3085 44.2342 43.3119 44.2222C43.3153 44.2103 43.3192 44.1986 43.3237 44.1871C43.3282 44.1757 43.3332 44.1644 43.3387 44.1535C43.3443 44.1426 43.3503 44.132 43.3568 44.1216C43.3633 44.1113 43.3702 44.1014 43.3777 44.0919C43.3851 44.0823 43.3929 44.0732 43.4012 44.0645C43.4095 44.0558 43.4181 44.0475 43.4271 44.0397C43.4362 44.0319 43.4456 44.0247 43.4553 44.0179C43.4649 44.0111 43.475 44.0049 43.4852 43.9993C43.4955 43.9936 43.506 43.9884 43.5168 43.9839C43.5275 43.9793 43.5384 43.9754 43.5496 43.972C43.5607 43.9685 43.572 43.9658 43.5834 43.9636C43.5947 43.9614 43.6062 43.9599 43.6177 43.9589C43.6292 43.958 43.6408 43.9577 43.6523 43.958L46.5771 43.958C46.5845 43.958 46.592 43.9583 46.5995 43.9588C46.6069 43.9593 46.6143 43.9601 46.6217 43.9611C46.6291 43.9621 46.6365 43.9634 46.6438 43.965C46.6511 43.9665 46.6584 43.9683 46.6656 43.9704C46.6728 43.9724 46.68 43.9748 46.687 43.9772C46.6941 43.9798 46.7011 43.9826 46.708 43.9856C46.7149 43.9887 46.7217 43.9919 46.7284 43.9954C46.7351 43.999 46.7418 44.0027 46.7482 44.0066C46.7547 44.0106 46.7611 44.0148 46.7673 44.0192C46.7735 44.0235 46.7796 44.0282 46.7856 44.033C46.7916 44.0378 46.7974 44.0429 46.8031 44.0481C46.8087 44.0534 46.8142 44.0588 46.8196 44.0644C46.8249 44.07 46.8301 44.0758 46.8351 44.0818C46.84 44.0877 46.8449 44.0939 46.8495 44.1002C46.8541 44.1065 46.8586 44.113 46.8628 44.1196C46.8671 44.1262 46.8711 44.1329 46.875 44.1398C46.8787 44.1467 46.8824 44.1537 46.8858 44.1609C46.8892 44.168 46.8925 44.1753 46.8954 44.1826C46.8984 44.1901 46.9012 44.1975 46.9037 44.205C46.9063 44.2126 46.9086 44.2202 46.9107 44.228C46.9128 44.2357 46.9146 44.2435 46.9162 44.2513C46.9179 44.2592 46.9192 44.2671 46.9204 44.275C46.9215 44.283 46.9224 44.291 46.9231 44.299C46.9238 44.307 46.9242 44.315 46.9244 44.3231C46.9246 44.3311 46.9245 44.3392 46.9242 44.3472C46.924 44.3552 46.9235 44.3632 46.9227 44.3713C46.9219 44.3792 46.9209 44.3872 46.9197 44.3952C46.9184 44.403 46.917 44.411 46.9152 44.4188C46.9135 44.4266 46.9116 44.4343 46.9094 44.4421C46.9072 44.4497 46.9049 44.4573 46.9022 44.4649C46.8996 44.4724 46.8967 44.4798 46.8937 44.4872C46.8906 44.4945 46.8873 44.5017 46.8838 44.5088L45.7742 46.7565C45.7595 46.7865 45.7412 46.8138 45.7195 46.8384C45.6978 46.8631 45.6734 46.8841 45.6464 46.9016C45.6194 46.9191 45.5908 46.9324 45.5604 46.9414C45.53 46.9505 45.4991 46.955 45.4676 46.955Z" fill="#d96a10" fill-rule="nonzero" opacity="1" stroke="none"/>
</g>
</g>
<g opacity="1">
<clipPath id="ClipPath_7">
<path d="M42.7363 47.3521L43.7467 47.3521L43.7467 48.4313L42.7363 48.4313L42.7363 47.3521Z"/>
</clipPath>
<g clip-path="url(#ClipPath_7)">
<path d="M43.7421 47.8906C43.7421 47.908 43.7413 47.9253 43.7398 47.9427C43.7381 47.96 43.7358 47.9771 43.7327 47.9942C43.7294 48.0112 43.7256 48.0281 43.7209 48.0447C43.7163 48.0614 43.7108 48.0777 43.7046 48.0937C43.6985 48.1098 43.6916 48.1255 43.684 48.1409C43.6763 48.1562 43.6681 48.1711 43.6591 48.1855C43.6501 48.2 43.6406 48.214 43.6304 48.2273C43.6202 48.2408 43.6093 48.2537 43.5979 48.2659C43.5865 48.2782 43.5746 48.29 43.5621 48.3009C43.5497 48.312 43.5368 48.3223 43.5234 48.3319C43.5099 48.3416 43.4961 48.3505 43.482 48.3588C43.4677 48.3669 43.4532 48.3744 43.4383 48.381C43.4234 48.3877 43.4082 48.3935 43.3928 48.3985C43.3774 48.4036 43.3618 48.4078 43.346 48.4112C43.3301 48.4146 43.3142 48.4171 43.2982 48.4189C43.2821 48.4205 43.266 48.4214 43.2499 48.4214C43.2338 48.4214 43.2177 48.4205 43.2017 48.4189C43.1857 48.4171 43.1697 48.4146 43.1539 48.4112C43.1381 48.4078 43.1225 48.4036 43.1071 48.3985C43.0917 48.3935 43.0765 48.3877 43.0616 48.381C43.0467 48.3744 43.0321 48.3669 43.0179 48.3588C43.0038 48.3505 42.99 48.3416 42.9765 48.3319C42.9631 48.3223 42.9502 48.312 42.9377 48.3009C42.9253 48.29 42.9134 48.2782 42.902 48.2659C42.8906 48.2537 42.8797 48.2408 42.8695 48.2273C42.8593 48.214 42.8497 48.2 42.8407 48.1855C42.8318 48.1711 42.8235 48.1562 42.8159 48.1409C42.8083 48.1255 42.8014 48.1098 42.7952 48.0937C42.7891 48.0777 42.7836 48.0614 42.779 48.0447C42.7743 48.0281 42.7704 48.0112 42.7672 47.9942C42.7641 47.9771 42.7618 47.96 42.7601 47.9427C42.7586 47.9253 42.7578 47.908 42.7578 47.8906C42.7578 47.8733 42.7586 47.8559 42.7601 47.8387C42.7618 47.8213 42.7641 47.8042 42.7672 47.7871C42.7704 47.77 42.7743 47.7532 42.779 47.7366C42.7836 47.7199 42.7891 47.7036 42.7952 47.6875C42.8014 47.6714 42.8083 47.6557 42.8159 47.6404C42.8235 47.6251 42.8318 47.6103 42.8407 47.5957C42.8497 47.5813 42.8593 47.5674 42.8695 47.5539C42.8797 47.5405 42.8906 47.5277 42.902 47.5154C42.9134 47.5031 42.9253 47.4914 42.9377 47.4804C42.9502 47.4693 42.9631 47.459 42.9765 47.4493C42.99 47.4396 43.0038 47.4307 43.0179 47.4226C43.0321 47.4143 43.0467 47.407 43.0616 47.4003C43.0765 47.3936 43.0917 47.3878 43.1071 47.3827C43.1225 47.3777 43.1381 47.3734 43.1539 47.37C43.1697 47.3666 43.1857 47.3641 43.2017 47.3625C43.2177 47.3607 43.2338 47.3599 43.2499 47.3599C43.266 47.3599 43.2821 47.3607 43.2982 47.3625C43.3142 47.3641 43.3301 47.3666 43.346 47.37C43.3618 47.3734 43.3774 47.3777 43.3928 47.3827C43.4082 47.3878 43.4234 47.3936 43.4383 47.4003C43.4532 47.407 43.4677 47.4143 43.482 47.4226C43.4961 47.4307 43.5099 47.4396 43.5234 47.4493C43.5368 47.459 43.5497 47.4693 43.5621 47.4804C43.5746 47.4914 43.5865 47.5031 43.5979 47.5154C43.6093 47.5277 43.6202 47.5405 43.6304 47.5539C43.6406 47.5674 43.6501 47.5813 43.6591 47.5957C43.6681 47.6103 43.6763 47.6251 43.684 47.6404C43.6916 47.6557 43.6985 47.6714 43.7046 47.6875C43.7108 47.7036 43.7163 47.7199 43.7209 47.7366C43.7256 47.7532 43.7294 47.77 43.7327 47.7871C43.7358 47.8042 43.7381 47.8213 43.7398 47.8387C43.7413 47.8559 43.7421 47.8733 43.7421 47.8906Z" fill="#d96a10" fill-rule="nonzero" opacity="1" stroke="none"/>
</g>
</g>
<g opacity="1">
<clipPath id="ClipPath_8">
<path d="M44.8281 47.3521L45.8385 47.3521L45.8385 48.4313L44.8281 48.4313L44.8281 47.3521Z"/>
</clipPath>
<g clip-path="url(#ClipPath_8)">
<path d="M45.8358 47.8901C45.8358 47.9075 45.835 47.9249 45.8334 47.9422C45.8319 47.9595 45.8296 47.9766 45.8263 47.9937C45.8232 48.0107 45.8193 48.0276 45.8147 48.0442C45.8099 48.0609 45.8045 48.0773 45.7983 48.0932C45.7922 48.1093 45.7853 48.125 45.7777 48.1404C45.7701 48.1557 45.7618 48.1706 45.7529 48.1851C45.7439 48.1995 45.7343 48.2135 45.7241 48.2268C45.7138 48.2403 45.7031 48.2532 45.6917 48.2654C45.6803 48.2777 45.6684 48.2895 45.6559 48.3004C45.6434 48.3115 45.6305 48.3218 45.6171 48.3314C45.6037 48.3411 45.5899 48.3501 45.5757 48.3583C45.5614 48.3664 45.5469 48.3739 45.532 48.3805C45.5171 48.3872 45.502 48.393 45.4865 48.398C45.4711 48.4031 45.4555 48.4074 45.4397 48.4107C45.4238 48.4141 45.408 48.4167 45.3919 48.4184C45.3759 48.4201 45.3598 48.4209 45.3437 48.4209C45.3276 48.4209 45.3115 48.4201 45.2954 48.4184C45.2794 48.4167 45.2635 48.4141 45.2477 48.4107C45.2319 48.4074 45.2163 48.4031 45.2009 48.398C45.1854 48.393 45.1703 48.3872 45.1554 48.3805C45.1405 48.3739 45.1259 48.3664 45.1117 48.3583C45.0974 48.3501 45.0836 48.3411 45.0702 48.3314C45.0569 48.3218 45.044 48.3115 45.0315 48.3004C45.019 48.2895 45.0071 48.2777 44.9957 48.2654C44.9843 48.2532 44.9735 48.2403 44.9632 48.2268C44.953 48.2135 44.9434 48.1995 44.9344 48.1851C44.9255 48.1706 44.9172 48.1557 44.9097 48.1404C44.9021 48.125 44.8952 48.1093 44.889 48.0932C44.8829 48.0773 44.8774 48.0609 44.8727 48.0442C44.8681 48.0276 44.8641 48.0107 44.861 47.9937C44.8578 47.9766 44.8555 47.9595 44.8539 47.9422C44.8523 47.9249 44.8516 47.9075 44.8516 47.8901C44.8516 47.8728 44.8523 47.8554 44.8539 47.8382C44.8555 47.8208 44.8578 47.8037 44.861 47.7866C44.8641 47.7696 44.8681 47.7527 44.8727 47.7361C44.8774 47.7194 44.8829 47.7031 44.889 47.687C44.8952 47.671 44.9021 47.6553 44.9097 47.6399C44.9172 47.6246 44.9255 47.6098 44.9344 47.5952C44.9434 47.5808 44.953 47.5669 44.9632 47.5535C44.9735 47.54 44.9843 47.5272 44.9957 47.5149C45.0071 47.5026 45.019 47.4909 45.0315 47.4799C45.044 47.4688 45.0569 47.4585 45.0702 47.4489C45.0836 47.4392 45.0974 47.4302 45.1117 47.4221C45.1259 47.4139 45.1405 47.4065 45.1554 47.3998C45.1703 47.3931 45.1854 47.3873 45.2009 47.3823C45.2163 47.3772 45.2319 47.3729 45.2477 47.3696C45.2635 47.3662 45.2794 47.3636 45.2954 47.362C45.3115 47.3602 45.3276 47.3594 45.3437 47.3594C45.3598 47.3594 45.3759 47.3602 45.3919 47.362C45.408 47.3636 45.4238 47.3662 45.4397 47.3696C45.4555 47.3729 45.4711 47.3772 45.4865 47.3823C45.502 47.3873 45.5171 47.3931 45.532 47.3998C45.5469 47.4065 45.5614 47.4139 45.5757 47.4221C45.5899 47.4302 45.6037 47.4392 45.6171 47.4489C45.6305 47.4585 45.6434 47.4688 45.6559 47.4799C45.6684 47.4909 45.6803 47.5026 45.6917 47.5149C45.7031 47.5272 45.7138 47.54 45.7241 47.5535C45.7343 47.5669 45.7439 47.5808 45.7529 47.5952C45.7618 47.6098 45.7701 47.6246 45.7777 47.6399C45.7853 47.6553 45.7922 47.671 45.7983 47.687C45.8045 47.7031 45.8099 47.7194 45.8147 47.7361C45.8193 47.7527 45.8232 47.7696 45.8263 47.7866C45.8296 47.8037 45.8319 47.8208 45.8334 47.8382C45.835 47.8554 45.8358 47.8728 45.8358 47.8901Z" fill="#d96a10" fill-rule="nonzero" opacity="1" stroke="none"/>
</g>
</g>
<path d="M43.5977 45.418L44.9416 45.418" fill="none" opacity="1" stroke="#d96a10" stroke-linecap="round" stroke-linejoin="miter" stroke-width="0.632192"/>
</g>
</g>
</g>
</g>
</g>
</svg>
